<svg width="36" height="36" viewBox="0 0 36 36" fill="none" xmlns="http://www.w3.org/2000/svg">
<g id="Group 59">
<path id="Vector" d="M22.0006 14.8C20.6726 14.8 19.6006 13.728 19.6006 12.4V4.4C19.6006 3.072 20.6726 2 22.0006 2C23.3286 2 24.4006 3.072 24.4006 4.4V12.4C24.4006 13.728 23.3286 14.8 22.0006 14.8Z" stroke="#362FD9" stroke-width="3" stroke-linecap="round" stroke-linejoin="round"/>
<path id="Vector_2" d="M31.6002 14.8H29.2002V12.4C29.2002 11.072 30.2722 10 31.6002 10C32.9282 10 34.0002 11.072 34.0002 12.4C34.0002 13.728 32.9282 14.8 31.6002 14.8Z" stroke="#362FD9" stroke-width="3" stroke-linecap="round" stroke-linejoin="round"/>
<path id="Vector_3" d="M14.0006 21.2C15.3286 21.2 16.4006 22.272 16.4006 23.6V31.6C16.4006 32.928 15.3286 34 14.0006 34C12.6726 34 11.6006 32.928 11.6006 31.6V23.6C11.6006 22.272 12.6726 21.2 14.0006 21.2Z" stroke="#362FD9" stroke-width="3" stroke-linecap="round" stroke-linejoin="round"/>
<path id="Vector_4" d="M4.4 21.2H6.8V23.6C6.8 24.928 5.728 26 4.4 26C3.072 26 2 24.928 2 23.6C2 22.272 3.072 21.2 4.4 21.2Z" stroke="#362FD9" stroke-width="3" stroke-linecap="round" stroke-linejoin="round"/>
<path id="Vector_5" d="M21.2002 22C21.2002 20.672 22.2722 19.6 23.6002 19.6H31.6002C32.9282 19.6 34.0002 20.672 34.0002 22C34.0002 23.328 32.9282 24.4 31.6002 24.4H23.6002C22.2722 24.4 21.2002 23.328 21.2002 22Z" stroke="#362FD9" stroke-width="3" stroke-linecap="round" stroke-linejoin="round"/>
<path id="Vector_6" d="M23.6002 29.2H21.2002V31.6C21.2002 32.928 22.2722 34 23.6002 34C24.9282 34 26.0002 32.928 26.0002 31.6C26.0002 30.272 24.9282 29.2 23.6002 29.2Z" stroke="#362FD9" stroke-width="3" stroke-linecap="round" stroke-linejoin="round"/>
<path id="Vector_7" d="M14.8 14C14.8 12.672 13.728 11.6 12.4 11.6H4.4C3.072 11.6 2 12.672 2 14C2 15.328 3.072 16.4 4.4 16.4H12.4C13.728 16.4 14.8 15.328 14.8 14Z" stroke="#362FD9" stroke-width="3" stroke-linecap="round" stroke-linejoin="round"/>
<path id="Vector_8" d="M12.4 6.8H14.8V4.4C14.8 3.072 13.728 2 12.4 2C11.072 2 10 3.072 10 4.4C10 5.728 11.072 6.8 12.4 6.8Z" stroke="#362FD9" stroke-width="3" stroke-linecap="round" stroke-linejoin="round"/>
</g>
</svg>
