<svg width="134" height="80" viewBox="0 0 134 80" fill="none" xmlns="http://www.w3.org/2000/svg">
<g id="Group 48">
<rect id="Rectangle 245" width="134" height="80" rx="15" fill="#DFF5F5"/>
<g id="&#240;&#159;&#166;&#134; icon &#34;facebook icon&#34;">
<path id="Vector" d="M81.6884 14H47.3568C43.2937 14 40 17.2937 40 21.3568V55.6884C40 59.7514 43.2937 63.0452 47.3568 63.0452H81.6884C85.7514 63.0452 89.0452 59.7514 89.0452 55.6884V21.3568C89.0452 17.2937 85.7514 14 81.6884 14Z" fill="#1877F2"/>
<path id="Vector_2" d="M74.0633 45.6111L75.1553 38.5225H68.3541V33.9246C68.3541 31.9896 69.3024 30.0929 72.3486 30.0929H75.4427V24.0581C75.4427 24.0581 72.636 23.5791 69.9538 23.5791C64.35 23.5791 60.6908 26.9701 60.6908 33.1199V38.5225H54.4644V45.6111H60.6908V63.0451H68.3541V45.6111H74.0633Z" fill="white"/>
</g>
</g>
</svg>
