<svg width="133" height="80" viewBox="0 0 133 80" fill="none" xmlns="http://www.w3.org/2000/svg">
<g id="Group 47">
<rect id="Rectangle 244" width="133" height="80" rx="15" fill="#DFF5F5"/>
<g id="&#240;&#159;&#166;&#134; icon &#34;google icon&#34;">
<path id="Vector" d="M90.5682 33.7198H88.5929V33.6181H66.5226V43.4271H80.3815C78.3596 49.1372 72.9267 53.2361 66.5226 53.2361C58.397 53.2361 51.809 46.6481 51.809 38.5226C51.809 30.397 58.397 23.809 66.5226 23.809C70.2733 23.809 73.6856 25.224 76.2838 27.5352L83.22 20.599C78.8403 16.5172 72.9818 14 66.5226 14C52.98 14 42 24.98 42 38.5226C42 52.0652 52.98 63.0452 66.5226 63.0452C80.0652 63.0452 91.0452 52.0652 91.0452 38.5226C91.0452 36.8783 90.876 35.2733 90.5682 33.7198Z" fill="#FFC107"/>
<path id="Vector_2" d="M44.8276 27.1085L52.8845 33.0173C55.0646 27.6198 60.3443 23.809 66.5228 23.809C70.2735 23.809 73.6858 25.224 76.284 27.5352L83.2202 20.599C78.8405 16.5172 72.982 14 66.5228 14C57.1036 14 48.9352 19.3177 44.8276 27.1085Z" fill="#FF3D00"/>
<path id="Vector_3" d="M66.5226 63.0451C72.8568 63.0451 78.6123 60.6211 82.9638 56.6791L75.3741 50.2566C72.912 52.1216 69.8516 53.2361 66.5226 53.2361C60.1443 53.2361 54.7285 49.169 52.6882 43.4933L44.6914 49.6546C48.7499 57.5962 56.9919 63.0451 66.5226 63.0451Z" fill="#4CAF50"/>
<path id="Vector_4" d="M90.5681 33.7199H88.5928V33.6181H66.5225V43.4271H80.3814C79.4103 46.17 77.6459 48.5352 75.3702 50.2579C75.3714 50.2567 75.3727 50.2567 75.3739 50.2554L82.9636 56.6779C82.4266 57.1659 91.045 50.7839 91.045 38.5226C91.045 36.8784 90.8758 35.2734 90.5681 33.7199Z" fill="#1976D2"/>
</g>
</g>
</svg>
