<svg width="133" height="80" viewBox="0 0 133 80" fill="none" xmlns="http://www.w3.org/2000/svg">
<g id="Group 49">
<rect id="Rectangle 246" width="133" height="80" rx="15" fill="#DFF5F5"/>
<g id="&#240;&#159;&#166;&#134; icon &#34;instagram icon&#34;">
<path id="c" d="M83.6884 14H49.3568C45.2937 14 42 17.2937 42 21.3568V55.6884C42 59.7514 45.2937 63.0452 49.3568 63.0452H83.6884C87.7514 63.0452 91.0452 59.7514 91.0452 55.6884V21.3568C91.0452 17.2937 87.7514 14 83.6884 14Z" fill="black"/>
<path id="c_2" d="M83.6884 14H49.3568C45.2937 14 42 17.2937 42 21.3568V55.6884C42 59.7514 45.2937 63.0452 49.3568 63.0452H83.6884C87.7514 63.0452 91.0452 59.7514 91.0452 55.6884V21.3568C91.0452 17.2937 87.7514 14 83.6884 14Z" fill="url(#paint0_radial_28_13)"/>
<path id="c_3" d="M83.6884 14H49.3568C45.2937 14 42 17.2937 42 21.3568V55.6884C42 59.7514 45.2937 63.0452 49.3568 63.0452H83.6884C87.7514 63.0452 91.0452 59.7514 91.0452 55.6884V21.3568C91.0452 17.2937 87.7514 14 83.6884 14Z" fill="url(#paint1_linear_28_13)"/>
<g id="Group">
<path id="Vector" d="M73.5151 23.7707H59.5296C55.2444 23.7707 51.7705 27.2446 51.7705 31.5298V45.5153C51.7705 49.8006 55.2444 53.2744 59.5296 53.2744H73.5151C77.8004 53.2744 81.2742 49.8006 81.2742 45.5153V31.5298C81.2742 27.2446 77.8004 23.7707 73.5151 23.7707Z" stroke="white" stroke-width="3"/>
<path id="Vector_2" d="M66.5225 45.4195C70.3316 45.4195 73.4194 42.3316 73.4194 38.5225C73.4194 34.7134 70.3316 31.6255 66.5225 31.6255C62.7134 31.6255 59.6255 34.7134 59.6255 38.5225C59.6255 42.3316 62.7134 45.4195 66.5225 45.4195Z" stroke="white" stroke-width="3"/>
<path id="Vector_3" d="M75.2393 30.3803C75.5567 30.3803 75.814 30.123 75.814 29.8056C75.814 29.4881 75.5567 29.2308 75.2393 29.2308C74.9219 29.2308 74.6646 29.4881 74.6646 29.8056C74.6646 30.123 74.9219 30.3803 75.2393 30.3803Z" stroke="white" stroke-width="3"/>
</g>
</g>
</g>
<defs>
<radialGradient id="paint0_radial_28_13" cx="0" cy="0" r="1" gradientUnits="userSpaceOnUse" gradientTransform="translate(61.6181 63.0452) scale(49.0452)">
<stop offset="0.1" stop-color="#FFDD55"/>
<stop offset="0.5" stop-color="#FF543E"/>
<stop offset="1" stop-color="#C837AB"/>
</radialGradient>
<linearGradient id="paint1_linear_28_13" x1="42" y1="14" x2="51.809" y2="63.0452" gradientUnits="userSpaceOnUse">
<stop offset="0.1" stop-color="#3771C8"/>
<stop offset="0.5" stop-color="#6600FF" stop-opacity="0"/>
</linearGradient>
</defs>
</svg>
