<svg width="31" height="31" viewBox="0 0 31 31" fill="none" xmlns="http://www.w3.org/2000/svg">
<g id="Group 53">
<path id="Vector" d="M15.5 29C22.9558 29 29 22.9558 29 15.5C29 8.04416 22.9558 2 15.5 2C8.04416 2 2 8.04416 2 15.5C2 22.9558 8.04416 29 15.5 29Z" stroke="#4DA5A5" stroke-width="3" stroke-linecap="round" stroke-linejoin="round"/>
<path id="Vector_2" d="M11.5713 11.45C11.8887 10.5478 12.5151 9.78694 13.3397 9.30233C14.1643 8.81771 15.1338 8.64057 16.0765 8.80226C17.0192 8.96396 17.8742 9.45406 18.4901 10.1858C19.1061 10.9175 19.4432 11.8436 19.4418 12.8C19.4418 15.5 15.3918 16.85 15.3918 16.85" stroke="#4DA5A5" stroke-width="3" stroke-linecap="round" stroke-linejoin="round"/>
<path id="Vector_3" d="M15.5 22.25H15.5135" stroke="#4DA5A5" stroke-width="3" stroke-linecap="round" stroke-linejoin="round"/>
</g>
</svg>
