<svg width="30" height="30" viewBox="0 0 30 30" fill="none" xmlns="http://www.w3.org/2000/svg">
<path id="Vector" d="M18.3468 8.28177C18.0953 8.53842 17.9544 8.88347 17.9544 9.24285C17.9544 9.60223 18.0953 9.94728 18.3468 10.2039L20.5436 12.4007C20.8002 12.6523 21.1453 12.7932 21.5047 12.7932C21.8641 12.7932 22.2091 12.6523 22.4658 12.4007L27.6419 7.22458C28.3323 8.75021 28.5413 10.45 28.2411 12.0975C27.9409 13.7449 27.1458 15.2618 25.9617 16.4459C24.7776 17.6299 23.2608 18.4251 21.6133 18.7252C19.9659 19.0254 18.2661 18.8164 16.7405 18.126L7.25322 27.6132C6.70702 28.1594 5.96621 28.4663 5.19377 28.4663C4.42132 28.4663 3.68051 28.1594 3.13431 27.6132C2.5881 27.067 2.28125 26.3262 2.28125 25.5538C2.28125 24.7813 2.5881 24.0405 3.13431 23.4943L12.6215 14.0071C11.9312 12.4814 11.7221 10.7816 12.0223 9.13419C12.3225 7.48674 13.1176 5.9699 14.3017 4.7858C15.4858 3.6017 17.0026 2.80659 18.6501 2.50642C20.2975 2.20625 21.9973 2.41528 23.523 3.10566L18.3606 8.26804L18.3468 8.28177Z" stroke="#362FD9" stroke-width="3" stroke-linecap="round" stroke-linejoin="round"/>
</svg>
